<svg width="20" height="20" viewBox="0 0 20 20" fill="none" xmlns="http://www.w3.org/2000/svg">
<path fill-rule="evenodd" clip-rule="evenodd" d="M9.6261 1.875C11.2212 1.87499 12.4976 1.87498 13.5226 1.97707C13.4286 2.22143 13.3586 2.38968 13.3139 2.48698C13.1799 2.54863 12.9184 2.65143 12.5025 2.80531L11.9216 3.02025C11.2676 3.26228 10.8334 3.88593 10.8334 4.58333C10.8334 5.28073 11.2676 5.9044 11.9216 6.14642L12.5025 6.36136C12.9184 6.51523 13.1832 6.61803 13.3171 6.67969C13.3788 6.81355 13.4848 7.08169 13.6387 7.49754L13.8536 8.07839C14.0956 8.73242 14.7193 9.16667 15.4167 9.16667C16.1141 9.16667 16.7378 8.73242 16.9798 8.07839L17.1947 7.49754C17.3486 7.08169 17.4514 6.81355 17.513 6.67968C17.6103 6.63488 17.7784 6.56836 18.0227 6.4763C18.125 7.51334 18.125 8.86783 18.125 10.4643C18.125 12.2899 18.125 13.7238 17.9745 14.8433C17.8203 15.9905 17.4978 16.9007 16.7826 17.6159C16.0674 18.3311 15.1572 18.6536 14.01 18.8078C12.8905 18.9583 11.4566 18.9583 9.63102 18.9583C7.8054 18.9583 6.27622 18.9583 5.1567 18.8078C4.0095 18.6536 3.09928 18.3311 2.38411 17.6159C1.66895 16.9007 1.34642 15.9905 1.19218 14.8433C1.04167 13.7238 1.04168 12.2899 1.04169 10.4643C1.04168 8.63875 1.04167 7.10953 1.19218 5.99002C1.34642 4.84281 1.66895 3.93259 2.38411 3.21742C3.09928 2.50227 4.0095 2.17973 5.1567 2.02549C6.27622 1.87498 7.80049 1.87499 9.6261 1.875ZM11.6626 8.33333C11.6626 9.48392 10.7285 10.4167 9.57627 10.4167C8.4241 10.4167 7.49 9.48392 7.49 8.33333C7.49 7.18274 8.4241 6.25 9.57627 6.25C10.7285 6.25 11.6626 7.18274 11.6626 8.33333ZM13.876 14.0649C11.9694 10.7283 7.1973 10.7283 5.2907 14.0649C5.18016 14.2583 5.18096 14.496 5.29279 14.6887C5.40461 14.8814 5.61056 15 5.83335 15H13.3334C13.5562 15 13.7621 14.8814 13.8739 14.6887C13.9858 14.496 13.9865 14.2583 13.876 14.0649Z" fill="#09090B"/>
<path d="M15.4167 1.04169C15.6782 1.04169 15.9121 1.20452 16.0028 1.44979L16.2177 2.03065C16.5194 2.84594 16.6157 3.06745 16.7741 3.2259C16.9326 3.38436 17.1541 3.48058 17.9694 3.78226L18.5502 3.9972C18.7955 4.08795 18.9583 4.32183 18.9583 4.58335C18.9583 4.84488 18.7955 5.07875 18.5502 5.16951L17.9694 5.38445C17.1541 5.68613 16.9326 5.78235 16.7741 5.9408C16.6157 6.09926 16.5194 6.32077 16.2177 7.13606L16.0028 7.71692C15.9121 7.96219 15.6782 8.12502 15.4167 8.12502C15.1552 8.12502 14.9213 7.96219 14.8305 7.71692L14.6156 7.13606C14.3139 6.32077 14.2177 6.09926 14.0592 5.9408C13.9007 5.78235 13.6792 5.68613 12.8639 5.38445L12.2831 5.16951C12.0378 5.07875 11.875 4.84488 11.875 4.58335C11.875 4.32183 12.0378 4.08795 12.2831 3.9972L12.8639 3.78226C13.6792 3.48058 13.9007 3.38436 14.0592 3.2259C14.2177 3.06745 14.3139 2.84594 14.6156 2.03065L14.8305 1.44979C14.9213 1.20452 15.1552 1.04169 15.4167 1.04169Z" fill="#09090B"/>
</svg>
