<svg width="55" height="55" viewBox="0 0 55 55" fill="none" xmlns="http://www.w3.org/2000/svg">
<path fill-rule="evenodd" clip-rule="evenodd" d="M12.375 21.3125C12.375 18.2749 14.8374 15.8125 17.875 15.8125H37.8125C40.8501 15.8125 43.3125 18.2749 43.3125 21.3125V30.1743L39.5114 28.7677C39.411 28.7306 39.3319 28.6515 39.2948 28.5511L37.4689 23.6168C37.3507 23.2976 36.8993 23.2976 36.7811 23.6168L34.9552 28.5511C34.9181 28.6515 34.839 28.7306 34.7386 28.7677L29.8043 30.5936C29.4851 30.7118 29.4851 31.1632 29.8043 31.2814L34.7386 33.1073C34.839 33.1444 34.9181 33.2235 34.9552 33.3239L36.3618 37.125H30.9339C30.9202 37.1484 30.9049 37.1714 30.888 37.1939L28.3936 40.5174C28.1186 40.8838 27.5689 40.8838 27.2939 40.5174L24.7994 37.1939C24.7826 37.1714 24.7673 37.1484 24.7536 37.125H17.875C14.8374 37.125 12.375 34.6626 12.375 31.625V21.3125ZM31.1094 23.1522C31.0504 22.9926 30.8246 22.9926 30.7656 23.1522L30.4097 24.1139C30.3911 24.1641 30.3516 24.2036 30.3014 24.2222L29.3397 24.5781C29.1801 24.6371 29.1801 24.8629 29.3397 24.9219L30.3014 25.2778C30.3516 25.2964 30.3911 25.3359 30.4097 25.3861L30.7656 26.3478C30.8246 26.5074 31.0504 26.5074 31.1094 26.3478L31.4653 25.3861C31.4839 25.3359 31.5234 25.2964 31.5736 25.2778L32.5353 24.9219C32.6949 24.8629 32.6949 24.6371 32.5353 24.5781L31.5736 24.2222C31.5234 24.2036 31.4839 24.1641 31.4653 24.1139L31.1094 23.1522Z" fill="white"/>
<path d="M37.8884 37.1246C40.8657 37.0843 43.2717 34.6783 43.312 31.7009L39.5114 33.1073C39.411 33.1444 39.3319 33.2235 39.2947 33.3239L37.8884 37.1246Z" fill="white"/>
</svg>
