<svg width="20" height="20" viewBox="0 0 20 20" fill="none" xmlns="http://www.w3.org/2000/svg">
<path d="M8.57166 3.75247L10.4733 9.10914C10.5812 9.4136 10.8028 9.66446 11.0917 9.80914L16.1758 12.3508M16.1758 12.3533C16.7287 11.2496 16.9388 10.0057 16.779 8.78157C16.6192 7.55748 16.0968 6.40918 15.2791 5.48438C14.4614 4.55957 13.3857 3.90054 12.1904 3.59205C10.9951 3.28356 9.73479 3.33972 8.57166 3.75331L8.41083 3.29997C8.17999 2.64914 7.45916 2.29997 6.85249 2.63164C5.80872 3.20152 4.90675 3.99922 4.21356 4.96551C3.52037 5.9318 3.05379 7.04184 2.84845 8.21319C2.64312 9.38454 2.70432 10.5871 3.0275 11.7316C3.35068 12.876 3.92755 13.933 4.71525 14.8239C5.50294 15.7148 6.48124 16.4168 7.57747 16.8778C8.6737 17.3388 9.8597 17.5469 11.0474 17.4866C12.2351 17.4263 13.3939 17.0993 14.4379 16.5297C15.4818 15.9602 16.384 15.1627 17.0775 14.1966C17.4808 13.635 17.2233 12.8758 16.605 12.5666L16.1758 12.3525" stroke="#71717B" stroke-width="1.66667" stroke-linecap="round" stroke-linejoin="round"/>
</svg>
