<svg width="20" height="20" viewBox="0 0 20 20" fill="none" xmlns="http://www.w3.org/2000/svg">
<path d="M12.9166 9.99998C12.9166 11.6108 11.6108 12.9166 9.99998 12.9166C8.38915 12.9166 7.08331 11.6108 7.08331 9.99998C7.08331 8.38915 8.38915 7.08331 9.99998 7.08331C11.6108 7.08331 12.9166 8.38915 12.9166 9.99998Z" stroke="#71717B" stroke-width="1.25"/>
<path d="M17.5092 11.7471C17.9441 11.6298 18.1616 11.5712 18.2474 11.459C18.3334 11.3469 18.3334 11.1665 18.3334 10.8058V9.19435C18.3334 8.8336 18.3334 8.65318 18.2474 8.5411C18.1615 8.42893 17.9441 8.37026 17.5092 8.253C15.8839 7.81467 14.8666 6.11544 15.2861 4.50074C15.4014 4.05667 15.4591 3.83465 15.404 3.70442C15.3489 3.5742 15.1909 3.48446 14.8748 3.30498L13.4375 2.48896C13.1274 2.31284 12.9723 2.22478 12.8331 2.24353C12.6939 2.26228 12.5369 2.41896 12.2227 2.73229C11.0067 3.94541 8.99469 3.94536 7.77864 2.73221C7.46455 2.41887 7.3075 2.26221 7.16829 2.24345C7.02909 2.2247 6.874 2.31276 6.5638 2.48887L5.12655 3.30491C4.81046 3.48437 4.65241 3.57411 4.59734 3.70431C4.54225 3.83451 4.59991 4.05657 4.71523 4.50068C5.1345 6.11543 4.11645 7.81471 2.49087 8.25301C2.05595 8.37026 1.8385 8.42893 1.75259 8.54101C1.66669 8.65318 1.66669 8.8336 1.66669 9.19435V10.8058C1.66669 11.1665 1.66669 11.3469 1.75259 11.459C1.83848 11.5712 2.05595 11.6298 2.49087 11.7471C4.11619 12.1854 5.13342 13.8847 4.71395 15.4993C4.5986 15.9434 4.54091 16.1654 4.59599 16.2957C4.65107 16.4259 4.80912 16.5157 5.12523 16.6951L6.56248 17.5112C6.8727 17.6873 7.0278 17.7753 7.16702 17.7566C7.30624 17.7378 7.46325 17.5811 7.77728 17.2678C8.99394 16.0537 11.0074 16.0536 12.2241 17.2677C12.5381 17.5811 12.6951 17.7378 12.8344 17.7565C12.9735 17.7753 13.1287 17.6872 13.4389 17.5111L14.8761 16.695C15.1923 16.5156 15.3504 16.4258 15.4054 16.2956C15.4604 16.1653 15.4028 15.9433 15.2874 15.4993C14.8677 13.8847 15.8841 12.1855 17.5092 11.7471Z" stroke="#71717B" stroke-width="1.25" stroke-linecap="round"/>
</svg>
