<svg width="24" height="24" viewBox="0 0 24 24" fill="none" xmlns="http://www.w3.org/2000/svg">
<path d="M17.8349 0H6.16514C2.76023 0 0 2.76023 0 6.16514V17.8349C0 21.2398 2.76023 24 6.16514 24H17.8349C21.2398 24 24 21.2398 24 17.8349V6.16514C24 2.76023 21.2398 0 17.8349 0Z" fill="#09090B"/>
<path d="M18.6055 10.2386H14.7303C14.7082 9.93448 14.6337 9.6365 14.5101 9.35783C14.3971 9.09943 14.2308 8.8678 14.0221 8.67808C13.8134 8.48837 13.567 8.34485 13.2991 8.25691C12.9818 8.14014 12.6463 8.0805 12.3082 8.08076C11.6477 8.08076 11.1192 8.23489 10.6789 8.54315C10.2385 8.8514 9.88621 9.31379 9.66603 9.88627C9.44585 10.4808 9.33576 11.1853 9.33576 12C9.33576 12.8808 9.44585 13.5853 9.66603 14.1798C9.90823 14.7523 10.2385 15.1927 10.6789 15.5009C11.1192 15.7872 11.6477 15.9413 12.2862 15.9413C12.6385 15.9413 12.9468 15.8753 13.233 15.7872C13.4972 15.6991 13.7394 15.567 13.9596 15.3909C14.1798 15.2367 14.3339 15.0165 14.466 14.7743C14.5981 14.5542 14.6862 14.2679 14.7303 13.9597L18.6055 13.9817C18.5483 14.6164 18.3767 15.2355 18.0991 15.8092C17.4499 17.1688 16.3088 18.2312 14.9064 18.7817C14.0435 19.1168 13.1237 19.2813 12.1981 19.2661C10.8991 19.2661 9.73208 18.9798 8.71924 18.4294C7.68944 17.8602 6.8478 17.0032 6.29722 15.9633C5.68071 14.8844 5.39447 13.5633 5.39447 12C5.39447 10.4147 5.70273 9.09361 6.29722 8.03673C6.91374 6.93581 7.72842 6.12113 8.74126 5.57067C10.5735 4.65586 12.6898 4.49002 14.6422 5.10828C15.3908 5.32847 16.0514 5.70278 16.6238 6.16517C17.194 6.63584 17.6591 7.22092 17.989 7.8826C18.3192 8.56517 18.5394 9.35783 18.6055 10.2386Z" fill="white"/>
<mask id="mask0_23_98" style="mask-type:alpha" maskUnits="userSpaceOnUse" x="4" y="5" width="11" height="15">
<path d="M9.1376 5.06421L11.2293 8.25687L13.7615 15.633L14.3119 19.156L7.37613 19.5963L4.62384 15.633L5.39448 7.92659L9.1376 5.06421Z" fill="#A1A1AA"/>
</mask>
<g mask="url(#mask0_23_98)">
<path d="M18.6055 10.2385H14.7303C14.7082 9.93442 14.6337 9.63644 14.5101 9.35777C14.3971 9.09937 14.2308 8.86774 14.0221 8.67802C13.8134 8.48831 13.567 8.34479 13.2991 8.25685C12.9818 8.14008 12.6463 8.08044 12.3082 8.0807C11.6477 8.0807 11.1192 8.23483 10.6789 8.54309C10.2385 8.85134 9.88621 9.31373 9.66603 9.88621C9.44585 10.4807 9.33576 11.1853 9.33576 12C9.33576 12.8807 9.44585 13.5853 9.66603 14.1798C9.90823 14.7523 10.2385 15.1926 10.6789 15.5009C11.1192 15.7871 11.6477 15.9413 12.2862 15.9413C12.6385 15.9413 12.9468 15.8752 13.233 15.7871C13.4972 15.699 13.7394 15.5669 13.9596 15.3908C14.1798 15.2367 14.3339 15.0165 14.466 14.7743C14.5981 14.5541 14.6862 14.2679 14.7303 13.9596L18.6055 13.9816C18.5483 14.6163 18.3767 15.2355 18.0991 15.8091C17.4499 17.1687 16.3088 18.2311 14.9064 18.7816C14.0435 19.1167 13.1237 19.2812 12.1981 19.266C10.8991 19.266 9.73208 18.9798 8.71924 18.4293C7.68944 17.8601 6.8478 17.0032 6.29722 15.9633C5.68071 14.8844 5.39447 13.5633 5.39447 12C5.39447 10.4146 5.70273 9.09354 6.29722 8.03666C6.91374 6.93575 7.72842 6.12107 8.74126 5.57061C10.5735 4.6558 12.6898 4.48996 14.6422 5.10822C15.3908 5.32841 16.0514 5.70272 16.6238 6.1651C17.194 6.63578 17.6591 7.22086 17.989 7.88254C18.3192 8.5651 18.5394 9.35777 18.6055 10.2385Z" fill="#B2AEB9"/>
</g>
</svg>
